<mxfile host="app.diagrams.net" agent="Mozilla/5.0 (Windows NT 10.0; Win64; x64) AppleWebKit/537.36 (KHTML, like Gecko) Chrome/133.0.0.0 Safari/537.36" version="26.1.0">
  <diagram name="Page-1" id="FEnDGVMAJUj1QtHaWSwV">
    <mxGraphModel dx="-6" dy="454" grid="0" gridSize="10" guides="1" tooltips="1" connect="1" arrows="1" fold="1" page="0" pageScale="1" pageWidth="850" pageHeight="1100" math="0" shadow="0">
      <root>
        <mxCell id="0" />
        <mxCell id="1" parent="0" />
        <mxCell id="6zZQXqEcbPGOfixpye9N-1" value="" style="rounded=0;whiteSpace=wrap;html=1;fillColor=light-dark(#dae8fb, #1d293b);strokeColor=light-dark(#DAE8FB,#5C79A3);" vertex="1" parent="1">
          <mxGeometry x="918" y="175" width="309" height="80" as="geometry" />
        </mxCell>
      </root>
    </mxGraphModel>
  </diagram>
</mxfile>
